HIERARCHY
ROOT Hips
{
	OFFSET 0.000000 0.000000 0.000000
	CHANNELS 6 Xposition Yposition Zposition Zrotation Yrotation Xrotation 
	JOINT LHipJoint
	{
		OFFSET 0.000000 0.000000 0.000000
		CHANNELS 3 Zrotation Yrotation Xrotation
		JOINT LeftUpLeg
		{
			OFFSET 1.363060 -1.794630 0.839290
			CHANNELS 3 Zrotation Yrotation Xrotation
			JOINT LeftLeg
			{
				OFFSET 2.448110 -6.726130 0.000000
				CHANNELS 3 Zrotation Yrotation Xrotation
				JOINT LeftFoot
				{
					OFFSET 2.562200 -7.039590 0.000000
					CHANNELS 3 Zrotation Yrotation Xrotation
					JOINT LeftToeBase
					{
						OFFSET 0.157640 -0.433110 2.322550
						CHANNELS 3 Zrotation Yrotation Xrotation
						End Site
						{
							OFFSET 0.000000 0.000000 0.000000
						}
					}
				}
			}
		}
	}
	JOINT RHipJoint
	{
		OFFSET 0.000000 0.000000 0.000000
		CHANNELS 3 Zrotation Yrotation Xrotation
		JOINT RightUpLeg
		{
			OFFSET -1.305520 -1.794630 0.839290
			CHANNELS 3 Zrotation Yrotation Xrotation
			JOINT RightLeg
			{
				OFFSET -2.542530 -6.985550 0.000000
				CHANNELS 3 Zrotation Yrotation Xrotation
				JOINT RightFoot
				{
					OFFSET -2.568260 -7.056230 0.000000
					CHANNELS 3 Zrotation Yrotation Xrotation
					JOINT RightToeBase
					{
						OFFSET -0.164730 -0.452590 2.363150
						CHANNELS 3 Zrotation Yrotation Xrotation
						End Site
						{
							OFFSET 0.000000 0.000000 0.000000
						}
					}
				}
			}
		}
	}
	JOINT LowerBack
	{
		OFFSET 0.000000 0.000000 0.000000
		CHANNELS 3 Zrotation Yrotation Xrotation
		JOINT Spine
		{
			OFFSET 0.028270 2.035590 -0.193380
			CHANNELS 3 Zrotation Yrotation Xrotation
			JOINT Spine1
			{
				OFFSET 0.056720 2.048850 -0.042750
				CHANNELS 3 Zrotation Yrotation Xrotation
				JOINT Neck
				{
					OFFSET 0.000000 0.000000 0.000000
					CHANNELS 3 Zrotation Yrotation Xrotation
					JOINT Neck1
					{
						OFFSET -0.054170 1.746240 0.172020
						CHANNELS 3 Zrotation Yrotation Xrotation
						JOINT Head
						{
							OFFSET 0.104070 1.761360 -0.123970
							CHANNELS 3 Zrotation Yrotation Xrotation
							End Site
							{
								OFFSET 0.000000 0.000000 0.000000
							}
						}
					}
				}
				JOINT LeftShoulder
				{
					OFFSET 0.000000 0.000000 0.000000
					CHANNELS 3 Zrotation Yrotation Xrotation
					JOINT LeftArm
					{
						OFFSET 3.362410 1.200890 -0.311210
						CHANNELS 3 Zrotation Yrotation Xrotation
						JOINT LeftForeArm
						{
							OFFSET 4.983000 -0.000000 -0.000000
							CHANNELS 3 Zrotation Yrotation Xrotation
							JOINT LeftHand
							{
								OFFSET 3.483560 -0.000000 -0.000000
								CHANNELS 3 Zrotation Yrotation Xrotation
								JOINT LeftFingerBase
								{
									OFFSET 0.000000 0.000000 0.000000
									CHANNELS 3 Zrotation Yrotation Xrotation
									JOINT LeftHandIndex1
									{
										OFFSET 0.715260 -0.000000 -0.000000
										CHANNELS 3 Zrotation Yrotation Xrotation
										End Site
										{
											OFFSET 0.000000 0.000000 0.000000
										}
									}
								}
								JOINT LThumb
								{
									OFFSET 0.000000 0.000000 0.000000
									CHANNELS 3 Zrotation Yrotation Xrotation
									End Site
									{
										OFFSET 0.000000 0.000000 0.000000
									}
								}
							}
						}
					}
				}
				JOINT RightShoulder
				{
					OFFSET 0.000000 0.000000 0.000000
					CHANNELS 3 Zrotation Yrotation Xrotation
					JOINT RightArm
					{
						OFFSET -3.136600 1.374050 -0.404650
						CHANNELS 3 Zrotation Yrotation Xrotation
						JOINT RightForeArm
						{
							OFFSET -5.241900 -0.000000 -0.000000
							CHANNELS 3 Zrotation Yrotation Xrotation
							JOINT RightHand
							{
								OFFSET -3.444170 -0.000000 -0.000000
								CHANNELS 3 Zrotation Yrotation Xrotation
								JOINT RightFingerBase
								{
									OFFSET 0.000000 0.000000 0.000000
									CHANNELS 3 Zrotation Yrotation Xrotation
									JOINT RightHandIndex1
									{
										OFFSET -0.622530 -0.000000 -0.000000
										CHANNELS 3 Zrotation Yrotation Xrotation
										End Site
										{
											OFFSET 0.000000 0.000000 0.000000
										}
									}
								}
								JOINT RThumb
								{
									OFFSET 0.000000 0.000000 0.000000
									CHANNELS 3 Zrotation Yrotation Xrotation
									End Site
									{
										OFFSET 0.000000 0.000000 0.000000
									}
								}
							}
						}
					}
				}
			}
		}
	}
}
MOTION
Frames: 8
Frame Time: 0.008333
10.441304 17.880639 10.786735 179.154882 -2.210703 -151.970105 9.742138 1.141257 -1.735781 -24.485406 -21.151369 -20.247972 -1.233631 4.453517 8.932768 0.587268 -1.608648 -15.980468 4.375700 -12.644200 -38.050900 -14.073929 -2.915954 -1.234077 30.114714 19.078166 -18.706634 1.184362 -3.770269 7.631461 -1.025836 0.404823 -20.787890 -2.629100 10.069000 -29.200400 -1.691757 0.126849 -24.947719 1.668112 -1.342752 -6.266501 -1.413335 -1.552041 11.337757 -11.224904 1.087722 -1.385356 12.288895 -1.736566 16.939287 2.634000 -0.220100 2.845500 15.639705 -1.877390 0.542394 -107.579601 -4.502879 20.039124 11.341089 -12.114604 -1.548677 -1.514533 0.887307 6.920533 18.302091 -9.188672 -3.542800 -7.125000 0.000000 0.000000 -5.038500 19.546200 3.074300 -11.034278 -0.139286 -0.056390 99.384944 -2.645336 13.582648 -13.192667 23.478424 -3.566700 1.086524 3.709227 7.231193 -11.506968 -48.270335 9.609400 7.125000 0.000000 0.000000 63.058400 -75.453900 -49.015900 
10.439118 17.878562 10.780942 179.059016 -2.180516 -151.937567 9.749035 1.138317 -1.735862 -24.619724 -21.188199 -20.271151 -1.231388 4.493354 9.028886 0.593792 -1.603932 -16.064005 4.373700 -12.641700 -38.041600 -14.072368 -2.913243 -1.232999 29.965590 19.105467 -18.735611 1.178417 -3.781368 7.655496 -1.002282 0.379821 -20.561913 -2.548900 9.926300 -28.738300 -1.769338 0.156892 -24.991649 1.635809 -1.277407 -6.267117 -1.433832 -1.524450 11.319316 -11.272551 1.100037 -1.403135 12.402100 -1.735619 16.841508 2.682900 -0.220900 2.824400 15.686528 -1.950579 0.527021 -107.654369 -4.723805 20.194026 11.637735 -12.605752 -1.661067 -1.529322 0.923321 6.963297 18.646469 -9.680022 -3.801200 -7.125000 0.000000 0.000000 -4.787600 18.970800 2.981600 -11.088522 -0.083855 -0.091420 98.703838 -1.455494 7.060456 -13.794431 24.224830 -3.896088 0.847298 3.717969 1.701547 -13.096991 -47.186313 10.810800 7.125000 0.000000 0.000000 57.740400 -75.646700 -44.534600 
10.440539 17.875283 10.772087 179.100635 -2.143374 -151.954828 9.747319 1.146365 -1.732324 -24.599474 -21.141291 -20.195804 -1.235502 4.462683 8.968711 0.603348 -1.529513 -16.042507 4.282600 -12.527300 -37.623800 -14.072134 -2.923638 -1.233689 30.055141 19.041938 -18.691297 1.175461 -3.769204 7.639385 -0.990993 0.416883 -20.438619 -2.612600 10.039800 -29.105600 -1.772310 0.209868 -24.962821 1.626684 -1.223699 -6.287404 -1.428938 -1.498853 11.192661 -11.265075 1.126227 -1.348363 12.473730 -1.725688 16.784547 2.705400 -0.217500 2.802000 15.765882 -1.991625 0.509379 -107.717385 -4.770846 20.879774 11.992572 -13.179267 -1.796383 -1.592689 0.878664 6.115061 19.192688 -9.802093 -3.955700 -7.125000 0.000000 0.000000 -4.369100 18.830700 2.733000 -11.182361 -0.052206 -0.126144 98.735812 -1.571692 8.704606 -14.884348 25.706821 -4.443030 0.756753 3.781776 0.089876 -13.622961 -48.683204 11.472300 7.125000 0.000000 0.000000 63.215000 -76.444000 -50.202500 
10.442069 17.872550 10.762358 179.159075 -2.139814 -151.897591 9.749381 1.142375 -1.732284 -24.507423 -21.164464 -20.216973 -1.239954 4.456224 8.946488 0.614202 -1.459281 -16.067487 4.209400 -12.434000 -37.285100 -14.073991 -2.923062 -1.226809 30.127341 19.052013 -18.721993 1.179276 -3.764442 7.612613 -0.991774 0.386000 -20.456394 -2.642900 10.093200 -29.279100 -1.743869 0.252979 -25.050797 1.620237 -1.196223 -6.307817 -1.421204 -1.489032 11.138851 -11.298630 1.164116 -1.329131 12.527314 -1.691086 16.757526 2.735000 -0.201900 2.792100 15.830375 -2.020008 0.486839 -107.768330 -4.819670 21.848026 12.366006 -13.771441 -1.943461 -1.642318 0.774500 4.657930 19.483655 -9.672434 -3.945200 -7.125000 0.000000 0.000000 -4.142600 19.017500 2.573300 -11.231486 -0.031112 -0.139618 98.691866 -1.514696 9.009307 -15.328267 26.282172 -4.666548 0.702234 3.767852 -0.305772 -13.172067 -48.772338 11.095300 7.125000 0.000000 0.000000 63.746700 -76.282700 -50.512200 
10.442069 17.872659 10.748475 179.162257 -2.104197 -151.924837 9.746707 1.149704 -1.732990 -24.557689 -21.135076 -20.104774 -1.242579 4.434498 8.915248 0.623977 -1.422730 -16.116398 4.288500 -12.534800 -37.651000 -14.070679 -2.925653 -1.231920 30.142924 19.071573 -18.576262 1.177692 -3.713300 7.512245 -0.992724 0.481409 -20.441323 -2.563200 9.951900 -28.821100 -1.738242 0.279729 -25.143473 1.602611 -1.154699 -6.289549 -1.446162 -1.473321 11.219348 -11.314861 1.179853 -1.371703 12.600013 -1.680049 16.754112 2.767200 -0.194100 2.799200 15.883942 -2.058897 0.472270 -107.829007 -5.017738 22.169407 12.690429 -14.292722 -2.077326 -1.622833 0.719156 4.052662 19.355847 -9.678705 -3.901900 -7.125000 0.000000 0.000000 -4.254000 19.061400 2.638700 -11.280764 -0.008985 -0.150630 98.619407 -1.434892 9.588216 -15.801477 26.888152 -4.905349 0.634355 3.726234 -0.904830 -12.614206 -48.370334 10.558700 7.125000 0.000000 0.000000 62.339300 -75.902700 -48.848700 
10.443163 17.871894 10.731423 179.158923 -2.038611 -151.999768 9.740216 1.165443 -1.732325 -24.646270 -21.071992 -19.925967 -1.244498 4.405123 8.880318 0.634383 -1.367637 -16.129063 4.326100 -12.582200 -37.823800 -14.065345 -2.935206 -1.247525 30.189810 19.022076 -18.383488 1.169730 -3.666557 7.446440 -0.992194 0.687931 -20.395424 -2.507300 9.851100 -28.496000 -1.772623 0.277947 -25.244166 1.592829 -1.126043 -6.247004 -1.435578 -1.464168 11.393473 -11.285644 1.180486 -1.456934 12.663106 -1.678351 16.751987 2.781800 -0.187400 2.811600 15.941558 -2.101145 0.462647 -107.866566 -5.319453 22.117609 12.997657 -14.792832 -2.208715 -1.587313 0.719714 4.132924 19.242253 -9.914911 -3.960300 -7.125000 0.000000 0.000000 -4.364200 18.821200 2.730800 -11.327534 0.016799 -0.159608 98.487506 -1.398413 10.691902 -16.359102 27.610397 -5.203394 0.588325 3.718374 -2.152965 -13.169298 -48.349978 11.025000 7.125000 0.000000 0.000000 61.830000 -76.112600 -48.614000 
10.444365 17.870255 10.718305 179.197463 -2.105668 -152.016858 9.739604 1.163728 -1.734225 -24.600004 -21.112625 -19.896450 -1.242093 4.434224 8.963232 0.638737 -1.349407 -16.155205 4.401200 -12.675900 -38.167100 -14.070392 -2.933099 -1.250007 30.283461 19.085285 -18.271616 1.175578 -3.663765 7.457964 -1.001942 0.568933 -20.477097 -2.511900 9.859400 -28.522800 -1.758720 0.244847 -25.350177 1.606377 -1.167419 -6.222957 -1.410835 -1.484537 11.523556 -11.248558 1.186474 -1.513000 12.723086 -1.675855 16.742469 2.792800 -0.181400 2.816200 16.008493 -2.137241 0.449280 -107.930900 -5.552994 22.323851 13.354424 -15.366586 -2.366789 -1.559148 0.687565 4.116127 19.166440 -9.947626 -3.939500 -7.125000 0.000000 0.000000 -4.439600 18.826200 2.777800 -11.367729 0.041858 -0.168115 98.396580 -1.272709 11.433993 -16.841604 28.213978 -5.462507 0.536496 3.701505 -3.206729 -13.379545 -48.205607 11.179800 7.125000 0.000000 0.000000 61.033700 -76.135200 -47.928700 
10.446114 17.872113 10.708139 179.205111 -2.267114 -152.084359 9.732917 1.167347 -1.730672 -24.587703 -21.122965 -19.830643 -1.234577 4.454130 9.034017 0.624651 -1.481001 -16.197540 4.472600 -12.764000 -38.491500 -14.064847 -2.935444 -1.258358 30.363031 19.091382 -18.093657 1.185181 -3.644043 7.450595 -1.031230 0.412126 -20.731704 -2.398200 9.650500 -27.852200 -1.753394 0.195683 -25.335996 1.615989 -1.226433 -6.215764 -1.390005 -1.509296 11.539949 -11.242187 1.197391 -1.503199 12.786843 -1.681900 16.723515 2.813800 -0.184000 2.808400 16.078322 -2.168954 0.433495 -107.994773 -5.694133 22.761916 13.725351 -15.961355 -2.540070 -1.568354 0.702282 3.718677 19.375609 -10.497182 -4.197600 -7.125000 0.000000 0.000000 -4.301400 18.204000 2.750200 -11.409559 0.063920 -0.175361 98.377240 -1.139779 11.730512 -17.232085 28.682397 -5.667729 0.459616 3.674528 -3.835509 -12.707882 -48.056442 10.585900 7.125000 0.000000 0.000000 60.794900 -75.795300 -47.364200 
